# xmcd
#
# Track frame offsets:
# 150
# 12522
# 26197
# 40790
# 60950
# 82412
# 96095
# 107012
# 126862
# 143352
# 160932
# 175112
#
# Disc length: 2599 seconds
#
#
# Revision: 2
# Processed by: cddbd v1.4PL0 Copyright (c) Steve Scherf et al.
# Submitted via: FreeRIP 2.00 
#
DISCID=960a250c
DTITLE=Blue Shadows - On the Floor of Heaven
DYEAR=1993
DGENRE=Rock and Roll
TTITLE0=Coming on Strong
TTITLE1=The Fool is the Last One to Know
TTITLE2=If I Were You
TTITLE3=Think On It
TTITLE4=Deliver Me
TTITLE5=A Thousand Times
TTITLE6=If It Ain't Rockin'
TTITLE7=On The Floor Of Heaven
TTITLE8=When Will This Heartache End
TTITLE9=The Embers
TTITLE10=I Believe
TTITLE11=Is Anybody Here
EXTD=Produced by Jeffrey Hatcher and Billy 'Bud' Cowsill
EXTT0=
EXTT1=
EXTT2=
EXTT3=
EXTT4=
EXTT5=
EXTT6=
EXTT7=
EXTT8=
EXTT9=
EXTT10=
EXTT11=
PLAYORDER=
